<svg xmlns="http://www.w3.org/2000/svg" width="1200" height="720" viewBox="0 0 1200 720" fill="none">
  <rect width="1200" height="720" rx="40" fill="#EEF3FF"/>
  <rect x="80" y="88" width="1040" height="544" rx="28" fill="white" stroke="#D9E1EE" stroke-width="2"/>
  <rect x="132" y="144" width="310" height="36" rx="18" fill="#E9F0FF"/>
  <rect x="132" y="208" width="500" height="56" rx="16" fill="#1F5EFF" opacity="0.12"/>
  <rect x="132" y="290" width="420" height="20" rx="10" fill="#D9E1EE"/>
  <rect x="132" y="328" width="520" height="20" rx="10" fill="#D9E1EE"/>
  <rect x="132" y="366" width="360" height="20" rx="10" fill="#D9E1EE"/>
  <rect x="132" y="430" width="220" height="56" rx="16" fill="#1F5EFF"/>
  <rect x="726" y="166" width="290" height="214" rx="26" fill="#EEF3FF"/>
  <rect x="772" y="212" width="198" height="26" rx="13" fill="#D9E1EE"/>
  <rect x="772" y="256" width="150" height="26" rx="13" fill="#D9E1EE"/>
  <rect x="726" y="420" width="290" height="120" rx="26" fill="#F5F7FB"/>
  <text x="132" y="122" fill="#1F5EFF" font-family="Arial, Helvetica, sans-serif" font-size="28" font-weight="700">Civilization Portal</text>
  <text x="132" y="246" fill="#18202B" font-family="Arial, Helvetica, sans-serif" font-size="42" font-weight="700">Official entry for Civilization</text>
</svg>
